<?xml version="1.0" ?><!DOCTYPE svg  PUBLIC '-//W3C//DTD SVG 1.1//EN'  'http://www.w3.org/Graphics/SVG/1.1/DTD/svg11.dtd'><svg enable-background="new 0 0 96 96" height="96px" id="Layer_1" version="1.1" viewBox="0 0 96 96" width="96px" xml:space="preserve" xmlns="http://www.w3.org/2000/svg" xmlns:xlink="http://www.w3.org/1999/xlink"><g><path clip-rule="evenodd" d="M48,94.871C22.113,94.871,1.129,73.887,1.129,48   C1.129,22.114,22.113,1.129,48,1.129c25.886,0,46.871,20.985,46.871,46.871C94.871,73.887,73.886,94.871,48,94.871" fill="#FED136" fill-rule="evenodd"/><path clip-rule="evenodd" d="M75.058,45.973H73.05h-8.824c-1.086,0-2.072,0.443-2.786,1.157   c-0.713,0.711-1.155,1.696-1.155,2.78s0.444,2.069,1.158,2.783l-0.002,0.002l0.002,0.002c0.712,0.713,1.697,1.154,2.783,1.154   h8.824h2.008h0.006h0.006c0.117-0.003,0.222-0.05,0.296-0.125l0.004-0.004c0.075-0.074,0.122-0.179,0.125-0.296v-0.006v-0.006   v-7.006c0-0.119-0.049-0.228-0.128-0.307l0.002-0.002c-0.077-0.076-0.183-0.124-0.299-0.126h-0.006H75.058z M69.183,31.792   c-0.048-0.044-0.098-0.085-0.149-0.124c-0.047-0.062-0.098-0.121-0.152-0.176c0,0,0.001-0.001,0.002-0.002   c-0.059-0.058-0.121-0.112-0.188-0.161c-0.046-0.062-0.098-0.121-0.152-0.176c0.001,0,0.001-0.001,0.002-0.002   c-0.058-0.058-0.121-0.112-0.188-0.161c-0.047-0.062-0.098-0.121-0.152-0.176c0,0,0.001-0.001,0.002-0.002   c-0.059-0.058-0.122-0.112-0.188-0.161c-0.047-0.062-0.098-0.121-0.152-0.176c0.001,0,0.001-0.001,0.002-0.002   c-0.059-0.058-0.121-0.111-0.188-0.161c-0.047-0.062-0.098-0.121-0.152-0.175c0-0.001,0.001-0.001,0.002-0.002   c-0.059-0.059-0.122-0.112-0.188-0.161c-0.047-0.062-0.098-0.121-0.152-0.176c0.001,0,0.001-0.001,0.002-0.002   c-0.059-0.058-0.121-0.111-0.188-0.161c-0.047-0.062-0.099-0.121-0.153-0.176c0.001,0,0.002-0.001,0.002-0.002   c-0.058-0.058-0.121-0.112-0.188-0.161c-0.047-0.062-0.098-0.121-0.152-0.176c0,0,0.001-0.001,0.002-0.002   c-0.059-0.058-0.121-0.112-0.188-0.161c-0.046-0.062-0.098-0.121-0.152-0.176c0.001,0,0.001-0.001,0.002-0.002   c-0.059-0.058-0.121-0.112-0.188-0.161c0.205,0.272,0.327,0.61,0.327,0.974v0.195H21.233c-0.063,0.109-0.118,0.222-0.167,0.339   h0.506c-0.063,0.108-0.118,0.222-0.167,0.338h0.505c-0.063,0.109-0.118,0.222-0.166,0.338h0.505   c-0.063,0.109-0.118,0.222-0.167,0.338h0.506c-0.063,0.109-0.119,0.222-0.167,0.338h0.505c-0.057,0.099-0.108,0.202-0.153,0.308   h43.634h0.908H69.183z M94.344,55.047l-22.607-22.59c0.197,0.269,0.313,0.602,0.313,0.961v10.555h-1.041h-2h-4.783   c-1.632,0-3.116,0.668-4.192,1.743c-1.079,1.078-1.749,2.563-1.749,4.194c0,1.636,0.669,3.121,1.744,4.197l0.002-0.002   c1.078,1.078,2.564,1.747,4.195,1.747h4.783h0.013h0.272h1.715h0.283h0.758v10.554c0,0.449-0.182,0.856-0.475,1.149   c-0.295,0.294-0.703,0.478-1.153,0.478H20.844l26.742,26.833c0.138,0.001,0.275,0.005,0.414,0.005   c23.437,0,42.855-17.201,46.32-39.668l0.023-0.154V55.047z" fill="#FED136" fill-rule="evenodd"/><line fill="none" stroke="#FFFFFF" stroke-linecap="round" stroke-linejoin="round" stroke-miterlimit="2.6131" stroke-width="1.9998" x1="73.048" x2="73.048" y1="54.852" y2="66.406"/><path d="   M73.048,66.406c0,1.445-1.182,2.627-2.628,2.627" fill="none" stroke="#FFFFFF" stroke-linecap="round" stroke-linejoin="round" stroke-miterlimit="2.6131" stroke-width="1.9998"/><line fill="none" stroke="#FFFFFF" stroke-linecap="round" stroke-linejoin="round" stroke-miterlimit="2.6131" stroke-width="1.9998" x1="70.42" x2="20.821" y1="69.033" y2="69.033"/><path d="   M20.821,69.033c-0.723,0-1.314-0.591-1.314-1.313c0-12.31,0.003-24.62,0.003-36.929" fill="none" stroke="#FFFFFF" stroke-linecap="round" stroke-linejoin="round" stroke-miterlimit="2.6131" stroke-width="1.9998"/><line fill="none" stroke="#FFFFFF" stroke-linecap="round" stroke-linejoin="round" stroke-miterlimit="2.6131" stroke-width="1.9998" x1="19.51" x2="70.42" y1="30.791" y2="30.791"/><path d="   M70.42,30.791c1.446,0,2.628,1.182,2.628,2.627" fill="none" stroke="#FFFFFF" stroke-linecap="round" stroke-linejoin="round" stroke-miterlimit="2.6131" stroke-width="1.9998"/><line fill="none" stroke="#FFFFFF" stroke-linecap="round" stroke-linejoin="round" stroke-miterlimit="2.6131" stroke-width="1.9998" x1="73.048" x2="73.048" y1="33.418" y2="44.973"/><path d="   M19.509,30.791c0.063-2.114,1.811-3.824,3.939-3.824" fill="none" stroke="#FFFFFF" stroke-linecap="round" stroke-linejoin="round" stroke-miterlimit="2.6131" stroke-width="1.9998"/><line fill="none" stroke="#FFFFFF" stroke-linecap="round" stroke-linejoin="round" stroke-miterlimit="2.6131" stroke-width="1.9998" x1="23.448" x2="64.683" y1="26.967" y2="26.967"/><path d="   M64.683,26.967c1.446,0,2.629,1.184,2.629,2.629" fill="none" stroke="#FFFFFF" stroke-linecap="round" stroke-linejoin="round" stroke-miterlimit="2.6131" stroke-width="1.9998"/><polyline fill="none" points="   67.312,29.596 67.312,30.791 66.404,30.791  " stroke="#FFFFFF" stroke-linecap="round" stroke-linejoin="round" stroke-miterlimit="2.6131" stroke-width="1.9998"/><line fill="none" stroke="#FFFFFF" stroke-linecap="round" stroke-linejoin="round" stroke-miterlimit="2.6131" stroke-width="1.9998" x1="64.223" x2="75.056" y1="44.973" y2="44.973"/><path d="   M75.056,44.973c0.79,0,1.437,0.646,1.437,1.436" fill="none" stroke="#FFFFFF" stroke-linecap="round" stroke-linejoin="round" stroke-miterlimit="2.6131" stroke-width="1.9998"/><line fill="none" stroke="#FFFFFF" stroke-linecap="round" stroke-linejoin="round" stroke-miterlimit="2.6131" stroke-width="1.9998" x1="76.492" x2="76.492" y1="46.408" y2="53.415"/><path d="   M76.492,53.415c0,0.79-0.646,1.437-1.437,1.437" fill="none" stroke="#FFFFFF" stroke-linecap="round" stroke-linejoin="round" stroke-miterlimit="2.6131" stroke-width="1.9998"/><line fill="none" stroke="#FFFFFF" stroke-linecap="round" stroke-linejoin="round" stroke-miterlimit="2.6131" stroke-width="1.9998" x1="75.056" x2="64.223" y1="54.852" y2="54.852"/><path d="   M64.223,54.852c-2.718,0-4.94-2.223-4.94-4.941c0-2.715,2.223-4.938,4.94-4.938" fill="none" stroke="#FFFFFF" stroke-linecap="round" stroke-linejoin="round" stroke-miterlimit="2.6131" stroke-width="1.9998"/><path d="   M64.019,47.975c1.07,0,1.938,0.867,1.938,1.938s-0.867,1.938-1.938,1.938s-1.938-0.867-1.938-1.938S62.948,47.975,64.019,47.975" fill="none" stroke="#FFFFFF" stroke-linecap="round" stroke-linejoin="round" stroke-miterlimit="2.6131" stroke-width="1.9998"/><path d="   M70.006,55.422v9.698c0,0.606-0.495,1.103-1.103,1.103H24.158c-0.606,0-1.103-0.496-1.103-1.103V34.123H69.18   c0.454,0,0.826,0.372,0.826,0.827v9.897" fill="none" stroke="#FFFFFF" stroke-dasharray="2,6" stroke-linecap="round" stroke-linejoin="round" stroke-miterlimit="22.9256" stroke-width="1.9998"/></g></svg>